<svg width="48" height="48" viewBox="0 0 48 48" fill="none" xmlns="http://www.w3.org/2000/svg">
<g clip-path="url(#clip0_50_66)">
<path d="M48 24C48 10.7452 37.2548 0 24 0C10.7452 0 0 10.7452 0 24C0 37.2548 10.7452 48 24 48C37.2548 48 48 37.2548 48 24Z" fill="white"/>
<path fill-rule="evenodd" clip-rule="evenodd" d="M31.4224 46.8288C29.0848 47.5891 26.59 48.0001 23.9999 48.0001C21.408 48.0001 18.9117 47.5885 16.5727 46.8273C17.6532 46.9568 18.0524 46.2533 18.0524 45.6459C18.0524 45.3815 18.0479 44.9151 18.0418 44.2912C18.0349 43.5693 18.0258 42.6365 18.0194 41.5616C11.3429 43.013 9.93444 38.3419 9.93444 38.3419C8.84394 35.5681 7.27044 34.8295 7.27044 34.8295C5.09094 33.3389 7.43544 33.3691 7.43544 33.3691C9.84294 33.5388 11.1104 35.8443 11.1104 35.8443C13.2524 39.5145 16.7279 38.4548 18.0959 37.8392C18.3134 36.2872 18.9344 35.2287 19.6199 34.6284C14.2904 34.0221 8.68794 31.9626 8.68794 22.7598C8.68794 20.1374 9.62244 17.9941 11.1584 16.3143C10.9109 15.7066 10.0874 13.2658 11.3924 9.95894C11.3924 9.95894 13.4084 9.31342 17.9924 12.4207C19.9079 11.8877 21.9599 11.6223 24.0014 11.6115C26.0399 11.6219 28.0934 11.8877 30.0104 12.4207C34.5914 9.31342 36.6029 9.95894 36.6029 9.95894C37.9124 13.2658 37.0889 15.7066 36.8414 16.3143C38.3804 17.9941 39.3089 20.1374 39.3089 22.7598C39.3089 31.985 33.6974 34.0162 28.3514 34.6105C29.2124 35.352 29.9804 36.8169 29.9804 39.0581C29.9804 41.205 29.967 43.074 29.9581 44.3126C29.9537 44.9262 29.9504 45.3851 29.9504 45.6463C29.9504 46.2565 30.34 46.9614 31.4224 46.8288Z" fill="black"/>
</g>
<defs>
<clipPath id="clip0_50_66">
<rect width="48" height="48" fill="white"/>
</clipPath>
</defs>
</svg>
