<svg width="48" height="48" viewBox="0 0 48 48" fill="none" xmlns="http://www.w3.org/2000/svg">
<path d="M8.2315 37.7021H14.0579V23.5765L5.72479 17.3774V35.2292C5.72479 36.5842 6.84265 37.7021 8.2315 37.7021Z" fill="#4285F4"/>
<path d="M33.976 37.7021H39.8024C41.1913 37.7021 42.3091 36.5842 42.3091 35.1954V17.3774L34.0099 23.6103V37.7021H33.976Z" fill="#34A853"/>
<path d="M33.976 12.8044V23.6104L42.2752 17.3775V14.0578C42.2752 10.9752 38.7523 9.21374 36.2795 11.0768L33.976 12.8044Z" fill="#FBBC04"/>
<path fill-rule="evenodd" clip-rule="evenodd" d="M14.024 23.5765V12.8044L23.9831 20.2907L33.9421 12.8044V23.6104L24.0169 31.0627L14.024 23.5765Z" fill="#EA4335"/>
<path d="M5.72479 14.0241V17.3438L14.024 23.5766V12.8046L11.6867 11.0431C9.24773 9.2139 5.72479 10.9754 5.72479 14.0241Z" fill="#C5221F"/>
</svg>
