<svg width="48" height="48" viewBox="0 0 48 48" fill="none" xmlns="http://www.w3.org/2000/svg">
<g clip-path="url(#clip0_49_52)">
<path d="M16.0006 24C16.0006 22.4177 16.4698 20.871 17.3489 19.5554C18.228 18.2398 19.4775 17.2145 20.9394 16.609C22.4012 16.0035 24.0098 15.845 25.5617 16.1537C27.1136 16.4624 28.5392 17.2243 29.658 18.3431C30.7769 19.462 31.5388 20.8874 31.8475 22.4393C32.1562 23.9911 31.9978 25.5997 31.3923 27.0615C30.7867 28.5233 29.7613 29.7727 28.4457 30.6518C27.13 31.5308 25.5833 32 24.0009 32C21.8791 32 19.8442 31.1571 18.3439 29.6569C16.8435 28.1566 16.0006 26.1217 16.0006 24ZM11.6753 24C11.6753 26.4374 12.3981 28.82 13.7522 30.8466C15.1063 32.8732 17.031 34.4527 19.2829 35.3855C21.5348 36.3183 24.0127 36.5625 26.4034 36.0871C28.794 35.6117 30.99 34.4381 32.7136 32.7147C34.4372 30.9914 35.6111 28.7956 36.0868 26.4051C36.5625 24.0146 36.3186 21.5368 35.3861 19.2849C34.4535 17.033 32.8741 15.1082 30.8475 13.7539C28.821 12.3995 26.4384 11.6765 24.0009 11.6762C22.3825 11.6762 20.7799 11.9949 19.2846 12.6142C17.7893 13.2335 16.4307 14.1413 15.2862 15.2856C14.1418 16.43 13.234 17.7886 12.6147 19.2838C11.9954 20.779 11.6766 22.3816 11.6767 24M33.9307 11.1878C33.9306 11.7574 34.0993 12.3142 34.4156 12.788C34.7319 13.2617 35.1816 13.631 35.7078 13.8491C36.234 14.0673 36.8131 14.1245 37.3718 14.0136C37.9305 13.9026 38.4438 13.6285 38.8467 13.2258C39.2497 12.8232 39.5241 12.3101 39.6354 11.7515C39.7468 11.1929 39.6899 10.6138 39.4721 10.0874C39.2543 9.56112 38.8853 9.11121 38.4117 8.7946C37.9382 8.47798 37.3814 8.30889 36.8118 8.30871C36.0482 8.30908 35.316 8.6125 34.776 9.15232C34.236 9.69214 33.9323 10.4242 33.9317 11.1878M14.3064 43.5355C12.7844 43.5181 11.2767 43.2389 9.84933 42.7101C8.80687 42.3248 7.8637 41.7114 7.08875 40.9148C6.29091 40.1416 5.6773 39.1988 5.29338 38.1562C4.76367 36.7291 4.4838 35.2214 4.46606 33.6993C4.34982 31.1694 4.32488 30.4094 4.32488 24.0005C4.32488 17.5915 4.34982 16.8334 4.46606 14.3016C4.48518 12.7798 4.76435 11.2725 5.2915 9.84471C5.67682 8.80229 6.29023 7.85915 7.08687 7.08424C7.86047 6.28598 8.80404 5.67235 9.84744 5.28894C11.2753 4.75952 12.7837 4.48013 14.3064 4.46306C16.8364 4.34682 17.5965 4.32188 24.0009 4.32188C30.4054 4.32188 31.1683 4.34682 33.7001 4.46306C35.222 4.48217 36.7295 4.76133 38.1573 5.28847C39.2001 5.67306 40.1434 6.28654 40.9178 7.08377C41.7151 7.85818 42.3286 8.80146 42.7132 9.84424C43.2423 11.2715 43.5215 12.7792 43.5386 14.3012C43.6549 16.8329 43.6798 17.5911 43.6798 24C43.6798 30.4089 43.6568 31.1671 43.5386 33.6988C43.5203 35.2207 43.2411 36.7282 42.7132 38.1558C42.3138 39.1908 41.702 40.1307 40.9174 40.915C40.1327 41.6993 39.1925 42.3107 38.1573 42.7096C36.73 43.2387 35.2222 43.5179 33.7001 43.5351C31.1702 43.6513 30.4101 43.6762 24.0009 43.6762C17.5917 43.6762 16.8336 43.6536 14.3064 43.5355ZM14.106 0.145412C12.115 0.184798 10.1452 0.561757 8.28032 1.26024C6.67866 1.8629 5.22766 2.8075 4.02839 4.02824C2.80635 5.22634 1.86138 6.67739 1.25981 8.27953C0.561479 10.1445 0.184665 12.1144 0.145417 14.1054C0.0272952 16.6645 0 17.4824 0 24C0 30.5176 0.0272952 31.3355 0.145417 33.8946C0.184851 35.8855 0.561823 37.8552 1.26028 39.72C1.86183 41.3222 2.80662 42.7734 4.02839 43.9718C5.22806 45.1919 6.67874 46.1365 8.27985 46.7402C10.1448 47.4384 12.1146 47.8154 14.1055 47.8551C16.6661 47.9713 17.4826 48.0005 24.0005 48.0005C30.5184 48.0005 31.3363 47.9732 33.8954 47.8551C35.8864 47.8156 37.8562 47.4387 39.7211 46.7402C41.3158 46.1237 42.7641 45.1808 43.9731 43.9718C45.1821 42.7629 46.1251 41.3147 46.7416 39.72C47.441 37.8555 47.818 35.8856 47.8565 33.8946C47.9727 31.3336 47.9976 30.5176 47.9976 24C47.9976 17.4824 47.9704 16.6645 47.8565 14.1054C47.8171 12.1145 47.4402 10.1447 46.7416 8.28C46.138 6.67885 45.1935 5.22808 43.9735 4.02824C42.7755 2.80691 41.3252 1.86206 39.7239 1.25976C37.859 0.560928 35.8889 0.184112 33.8978 0.145412C31.3391 0.0291765 30.5207 0 24.0009 0C17.4812 0 16.6642 0.0272941 14.1041 0.145412" fill="url(#paint0_radial_49_52)"/>
<path d="M16.0006 24C16.0006 22.4177 16.4698 20.871 17.3489 19.5554C18.228 18.2398 19.4775 17.2145 20.9394 16.609C22.4012 16.0035 24.0098 15.845 25.5617 16.1537C27.1136 16.4624 28.5392 17.2243 29.658 18.3431C30.7769 19.462 31.5388 20.8874 31.8475 22.4393C32.1562 23.9911 31.9978 25.5997 31.3923 27.0615C30.7867 28.5233 29.7613 29.7727 28.4457 30.6518C27.13 31.5308 25.5833 32 24.0009 32C21.8791 32 19.8442 31.1571 18.3439 29.6569C16.8435 28.1566 16.0006 26.1217 16.0006 24ZM11.6753 24C11.6753 26.4374 12.3981 28.82 13.7522 30.8466C15.1063 32.8732 17.031 34.4527 19.2829 35.3855C21.5348 36.3183 24.0127 36.5625 26.4034 36.0871C28.794 35.6117 30.99 34.4381 32.7136 32.7147C34.4372 30.9914 35.6111 28.7956 36.0868 26.4051C36.5625 24.0146 36.3186 21.5368 35.3861 19.2849C34.4535 17.033 32.8741 15.1082 30.8475 13.7539C28.821 12.3995 26.4384 11.6765 24.0009 11.6762C22.3825 11.6762 20.7799 11.9949 19.2846 12.6142C17.7893 13.2335 16.4307 14.1413 15.2862 15.2856C14.1418 16.43 13.234 17.7886 12.6147 19.2838C11.9954 20.779 11.6766 22.3816 11.6767 24M33.9307 11.1878C33.9306 11.7574 34.0993 12.3142 34.4156 12.788C34.7319 13.2617 35.1816 13.631 35.7078 13.8491C36.234 14.0673 36.8131 14.1245 37.3718 14.0136C37.9305 13.9026 38.4438 13.6285 38.8467 13.2258C39.2497 12.8232 39.5241 12.3101 39.6354 11.7515C39.7468 11.1929 39.6899 10.6138 39.4721 10.0874C39.2543 9.56112 38.8853 9.11121 38.4117 8.7946C37.9382 8.47798 37.3814 8.30889 36.8118 8.30871C36.0482 8.30908 35.316 8.6125 34.776 9.15232C34.236 9.69214 33.9323 10.4242 33.9317 11.1878M14.3064 43.5355C12.7844 43.5181 11.2767 43.2389 9.84933 42.7101C8.80687 42.3248 7.8637 41.7114 7.08875 40.9148C6.29091 40.1416 5.6773 39.1988 5.29338 38.1562C4.76367 36.7291 4.4838 35.2214 4.46606 33.6993C4.34982 31.1694 4.32488 30.4094 4.32488 24.0005C4.32488 17.5915 4.34982 16.8334 4.46606 14.3016C4.48518 12.7798 4.76435 11.2725 5.2915 9.84471C5.67682 8.80229 6.29023 7.85915 7.08687 7.08424C7.86047 6.28598 8.80404 5.67235 9.84744 5.28894C11.2753 4.75952 12.7837 4.48013 14.3064 4.46306C16.8364 4.34682 17.5965 4.32188 24.0009 4.32188C30.4054 4.32188 31.1683 4.34682 33.7001 4.46306C35.222 4.48217 36.7295 4.76133 38.1573 5.28847C39.2001 5.67306 40.1434 6.28654 40.9178 7.08377C41.7151 7.85818 42.3286 8.80146 42.7132 9.84424C43.2423 11.2715 43.5215 12.7792 43.5386 14.3012C43.6549 16.8329 43.6798 17.5911 43.6798 24C43.6798 30.4089 43.6568 31.1671 43.5386 33.6988C43.5203 35.2207 43.2411 36.7282 42.7132 38.1558C42.3138 39.1908 41.702 40.1307 40.9174 40.915C40.1327 41.6993 39.1925 42.3107 38.1573 42.7096C36.73 43.2387 35.2222 43.5179 33.7001 43.5351C31.1702 43.6513 30.4101 43.6762 24.0009 43.6762C17.5917 43.6762 16.8336 43.6536 14.3064 43.5355ZM14.106 0.145412C12.115 0.184798 10.1452 0.561757 8.28032 1.26024C6.67866 1.8629 5.22766 2.8075 4.02839 4.02824C2.80635 5.22634 1.86138 6.67739 1.25981 8.27953C0.561479 10.1445 0.184665 12.1144 0.145417 14.1054C0.0272952 16.6645 0 17.4824 0 24C0 30.5176 0.0272952 31.3355 0.145417 33.8946C0.184851 35.8855 0.561823 37.8552 1.26028 39.72C1.86183 41.3222 2.80662 42.7734 4.02839 43.9718C5.22806 45.1919 6.67874 46.1365 8.27985 46.7402C10.1448 47.4384 12.1146 47.8154 14.1055 47.8551C16.6661 47.9713 17.4826 48.0005 24.0005 48.0005C30.5184 48.0005 31.3363 47.9732 33.8954 47.8551C35.8864 47.8156 37.8562 47.4387 39.7211 46.7402C41.3158 46.1237 42.7641 45.1808 43.9731 43.9718C45.1821 42.7629 46.1251 41.3147 46.7416 39.72C47.441 37.8555 47.818 35.8856 47.8565 33.8946C47.9727 31.3336 47.9976 30.5176 47.9976 24C47.9976 17.4824 47.9704 16.6645 47.8565 14.1054C47.8171 12.1145 47.4402 10.1447 46.7416 8.28C46.138 6.67885 45.1935 5.22808 43.9735 4.02824C42.7755 2.80691 41.3252 1.86206 39.7239 1.25976C37.859 0.560928 35.8889 0.184112 33.8978 0.145412C31.3391 0.0291765 30.5207 0 24.0009 0C17.4812 0 16.6642 0.0272941 14.1041 0.145412" fill="url(#paint1_radial_49_52)"/>
</g>
<defs>
<radialGradient id="paint0_radial_49_52" cx="0" cy="0" r="1" gradientUnits="userSpaceOnUse" gradientTransform="translate(6.37719 48.2268) scale(62.6599 62.6574)">
<stop offset="0.09" stop-color="#FA8F21"/>
<stop offset="0.78" stop-color="#D82D7E"/>
</radialGradient>
<radialGradient id="paint1_radial_49_52" cx="0" cy="0" r="1" gradientUnits="userSpaceOnUse" gradientTransform="translate(29.1113 50.3769) scale(49.3845 49.3826)">
<stop offset="0.64" stop-color="#8C3AAA" stop-opacity="0"/>
<stop offset="1" stop-color="#8C3AAA"/>
</radialGradient>
<clipPath id="clip0_49_52">
<rect width="48" height="48" fill="white"/>
</clipPath>
</defs>
</svg>
