<svg width="200" height="200" viewBox="0 0 200 200" fill="none" xmlns="http://www.w3.org/2000/svg">
<path d="M183.333 119.625C183.333 113.442 178.633 108.408 172.833 108.408H88.9667C83.1667 108.408 78.4667 113.442 78.4667 119.625C78.4667 125.808 83.1583 130.842 88.9667 130.842H172.833C178.633 130.85 183.333 125.817 183.333 119.625Z" fill="#B3B1B0"/>
<path d="M29.0166 151.558L64.9583 187.9C73.0666 196.058 84.275 200 96.65 200C109.025 200 120.233 195.733 128.358 187.55L149.925 165.575C154.175 161.292 154.025 154.2 149.6 149.742C145.175 145.283 138.142 145.133 133.9 149.417L111.6 171.142C107.75 175.033 102.417 176.658 96.525 176.658C90.6333 176.658 85.3083 175.033 81.4416 171.142L45.625 134.783C41.7666 130.892 39.825 125.2 39.825 119.258C39.825 113.317 41.7666 107.95 45.625 104.058L81.3333 67.5583C85.1916 63.6666 90.6333 62.1833 96.5166 62.1833C102.4 62.1833 107.733 63.8083 111.592 67.6999L133.892 89.4166C138.142 93.7083 145.175 93.5583 149.6 89.0999C154.025 84.6333 154.175 77.5416 149.925 73.2583L128.358 51.2916C122.876 45.813 115.972 41.9744 108.425 40.2083L108.142 40.1499L128.533 19.2916C132.8 15.0083 132.65 7.90827 128.225 3.44994C123.8 -1.00839 116.758 -1.15006 112.5 3.13327L29.0166 87.2999C20.9083 95.4833 16.6666 106.775 16.6666 119.258C16.6666 131.742 20.9083 143.392 29.0166 151.558Z" fill="#E7A41F"/>
<path d="M67.625 190.117C66.1726 189.306 64.8427 188.293 63.675 187.108C52.6167 176 41.5083 164.942 30.475 153.8C13.9 137.067 11.2917 112.658 23.925 92.8C25.9436 89.7645 28.2881 86.959 30.9167 84.4333L111.108 4.07498C116.317 -1.14169 123.592 -1.35835 128.433 3.51665C133.1 8.20831 132.825 15.6416 127.783 20.7333C121.375 27.2 114.958 33.65 108.542 40.1083C108.2 41.125 107.375 41.775 106.667 42.5C99.475 49.8 92.0833 56.9083 84.9917 64.3166C84.0667 65.2833 82.8083 65.8666 81.8917 66.8583C70.0333 78.7166 58.0333 90.4416 46.3417 102.458C36.8833 112.183 37.2 126.942 46.9083 136.85C57.8083 147.983 68.9 158.933 79.9167 169.967C80.475 170.525 81.05 171.067 81.6167 171.617C85.5167 174.142 85.5667 182.033 83.1417 185.542C80.4667 189.417 76.975 191.792 72.0333 191.608C70.375 191.558 69.0083 190.892 67.625 190.117Z" fill="white"/>
</svg>
