<svg width="200" height="200" viewBox="0 0 200 200" fill="none" xmlns="http://www.w3.org/2000/svg">
<path fill-rule="evenodd" clip-rule="evenodd" d="M81.3525 12.5C67.6206 12.5 56.4891 23.2783 56.4891 36.5741V53.2408H99.5219V57.8704H37.3634C23.6317 57.8704 12.5 68.6488 12.5 81.9444V118.056C12.5 131.351 23.6317 142.129 37.3634 142.129H51.7076V121.759C51.7076 108.464 62.8394 97.685 76.5712 97.685H122.472C134.092 97.685 143.511 88.565 143.511 77.315V36.5741C143.511 23.2783 132.379 12.5 118.647 12.5H81.3525ZM75.615 42.1296C80.3681 42.1296 84.2212 38.3986 84.2212 33.7963C84.2212 29.1939 80.3681 25.4629 75.615 25.4629C70.8612 25.4629 67.0081 29.1939 67.0081 33.7963C67.0081 38.3986 70.8612 42.1296 75.615 42.1296Z" fill="url(#paint0_linear_49_24)"/>
<path fill-rule="evenodd" clip-rule="evenodd" d="M118.646 187.5C132.378 187.5 143.51 176.722 143.51 163.426V146.759H100.477V142.13H162.636C176.367 142.13 187.499 131.351 187.499 118.056V81.9445C187.499 68.6489 176.367 57.8706 162.636 57.8706H148.291V78.2407C148.291 91.537 137.159 102.315 123.428 102.315H77.5263C65.9069 102.315 56.4881 111.435 56.4881 122.685V163.426C56.4881 176.722 67.62 187.5 81.3513 187.5H118.646ZM124.384 157.871C119.631 157.871 115.778 161.601 115.778 166.204C115.778 170.806 119.631 174.537 124.384 174.537C129.138 174.537 132.991 170.806 132.991 166.204C132.991 161.601 129.138 157.871 124.384 157.871Z" fill="url(#paint1_linear_49_24)"/>
<defs>
<linearGradient id="paint0_linear_49_24" x1="78.0056" y1="12.5" x2="78.0056" y2="142.129" gradientUnits="userSpaceOnUse">
<stop stop-color="#327EBD"/>
<stop offset="1" stop-color="#1565A7"/>
</linearGradient>
<linearGradient id="paint1_linear_49_24" x1="121.994" y1="57.8706" x2="121.994" y2="187.5" gradientUnits="userSpaceOnUse">
<stop stop-color="#FFDA4B"/>
<stop offset="1" stop-color="#F9C600"/>
</linearGradient>
</defs>
</svg>
