<svg width="200" height="200" viewBox="0 0 200 200" fill="none" xmlns="http://www.w3.org/2000/svg">
<path d="M164.44 68.6122C162.365 67.8981 160.216 67.2224 158.002 66.5834C158.366 65.0985 158.7 63.6329 158.997 62.1922C163.87 38.5351 160.684 19.4768 149.803 13.2019C139.369 7.18524 122.306 13.4586 105.073 28.4561C103.415 29.8982 101.754 31.4251 100.093 33.0253C98.9858 31.9666 97.8808 30.9434 96.7786 29.9648C78.7178 13.9285 60.6146 7.17064 49.7442 13.4636C39.3206 19.4978 36.2338 37.4144 40.6207 59.8344C41.0444 61.9999 41.5395 64.2114 42.0995 66.4599C39.5374 67.1872 37.0639 67.9625 34.6973 68.7874C13.5229 76.1697 0 87.7396 0 99.7406C0 112.135 14.5169 124.568 36.5716 132.106C38.3121 132.701 40.118 133.263 41.9792 133.797C41.3751 136.229 40.8496 138.612 40.4085 140.936C36.2256 162.967 39.4922 180.461 49.888 186.457C60.626 192.649 78.6473 186.284 96.1955 170.945C97.5824 169.732 98.9744 168.446 100.369 167.099C102.176 168.839 103.981 170.486 105.776 172.031C122.773 186.658 139.561 192.564 149.947 186.552C160.674 180.342 164.161 161.55 159.635 138.686C159.289 136.94 158.887 135.156 158.435 133.34C159.7 132.966 160.943 132.58 162.154 132.178C185.082 124.582 200 112.301 200 99.7406C200 87.6962 186.041 76.0483 164.44 68.6122ZM159.467 124.068C158.374 124.43 157.251 124.78 156.108 125.12C153.577 117.107 150.161 108.586 145.98 99.7823C149.97 91.1885 153.254 82.7766 155.714 74.8155C157.76 75.4075 159.746 76.0319 161.659 76.6909C180.167 83.0621 191.456 92.4822 191.456 99.7406C191.456 107.472 179.264 117.509 159.467 124.068ZM151.253 140.345C153.254 150.455 153.54 159.596 152.214 166.741C151.023 173.162 148.628 177.443 145.666 179.158C139.363 182.806 125.884 178.064 111.348 165.555C109.681 164.121 108.003 162.589 106.319 160.969C111.954 154.806 117.587 147.64 123.084 139.683C132.752 138.825 141.887 137.422 150.17 135.507C150.578 137.153 150.941 138.767 151.253 140.345ZM68.1845 178.527C62.0265 180.702 57.1219 180.764 54.1572 179.055C47.8485 175.416 45.2259 161.371 48.8033 142.53C49.2131 140.372 49.7008 138.156 50.2629 135.89C58.4558 137.702 67.5234 139.005 77.2151 139.791C82.7491 147.578 88.544 154.735 94.3838 161.002C93.1079 162.234 91.837 163.406 90.5732 164.511C82.8135 171.294 75.0375 176.107 68.1845 178.527ZM39.3349 124.021C29.5827 120.688 21.5289 116.356 16.0085 111.628C11.048 107.38 8.54358 103.163 8.54358 99.7406C8.54358 92.458 19.4011 83.1689 37.5097 76.8553C39.7069 76.0892 42.007 75.3673 44.3939 74.6891C46.8966 82.83 50.1796 91.3416 54.1415 99.9485C50.1283 108.683 46.7987 117.33 44.2715 125.567C42.5698 125.078 40.9212 124.563 39.3349 124.021ZM49.0055 58.1936C45.2469 38.9847 47.7432 24.4942 54.0247 20.858C60.7157 16.9844 75.5113 22.5074 91.1054 36.3539C92.1022 37.2389 93.1029 38.1652 94.1065 39.1235C88.2955 45.3631 82.5536 52.4667 77.0688 60.2075C67.6626 61.0793 58.6587 62.4798 50.3804 64.3552C49.8599 62.2616 49.3989 60.2046 49.0055 58.1936ZM135.276 79.4961C133.298 76.0778 131.266 72.7404 129.195 69.494C135.576 70.3007 141.69 71.3715 147.431 72.682C145.708 78.2063 143.559 83.9824 141.03 89.9037C139.216 86.4594 137.297 82.9867 135.276 79.4961ZM100.095 45.2296C104.036 49.4991 107.983 54.2659 111.865 59.4378C107.953 59.253 103.993 59.1569 100 59.1569C96.0449 59.1569 92.1139 59.2509 88.2265 59.4325C92.1122 54.3086 96.0929 49.5482 100.095 45.2296ZM64.689 79.5552C62.7121 82.9831 60.8289 86.437 59.0432 89.8973C56.5552 83.9966 54.4266 78.1942 52.688 72.5916C58.3942 71.3146 64.4793 70.2705 70.82 69.4791C68.7196 72.7553 66.6712 76.1181 64.689 79.5552ZM71.0026 130.612C64.4515 129.881 58.275 128.89 52.5701 127.649C54.3366 121.946 56.5121 116.02 59.0528 109.992C60.8431 113.45 62.7338 116.905 64.7228 120.34C66.7488 123.84 68.8481 127.268 71.0026 130.612ZM100.332 154.854C96.2823 150.485 92.2432 145.652 88.2984 140.453C92.1278 140.603 96.0321 140.68 100 140.68C104.077 140.68 108.106 140.588 112.073 140.412C108.178 145.704 104.246 150.545 100.332 154.854ZM141.112 109.685C143.785 115.778 146.038 121.673 147.828 127.278C142.029 128.601 135.768 129.667 129.171 130.459C131.247 127.168 133.297 123.774 135.311 120.282C137.348 116.749 139.283 113.21 141.112 109.685ZM127.91 116.013C124.783 121.434 121.574 126.609 118.315 131.493C112.381 131.918 106.249 132.136 100 132.136C93.7761 132.136 87.722 131.943 81.8922 131.565C78.5024 126.616 75.2229 121.426 72.1165 116.06C69.0183 110.709 66.1674 105.312 63.5836 99.9457C66.1667 94.5669 69.0108 89.1643 72.0912 83.8226L72.0905 83.8236C75.1792 78.4677 78.4298 73.3028 81.7882 68.3851C87.7363 67.9355 93.8355 67.7009 99.9996 67.7009C106.192 67.7009 112.299 67.9372 118.245 68.3908C121.552 73.2726 124.781 78.4207 127.882 83.7773C131.018 89.1942 133.898 94.5609 136.504 99.8243C133.906 105.178 131.032 110.599 127.91 116.013ZM145.535 20.6038C152.232 24.4661 154.837 40.0424 150.629 60.4677C150.36 61.771 150.058 63.0985 149.73 64.4438C141.432 62.5293 132.422 61.1046 122.989 60.2196C117.493 52.3937 111.798 45.2791 106.082 39.1196C107.619 37.6412 109.153 36.2314 110.682 34.9011C125.447 22.0513 139.247 16.978 145.535 20.6038ZM100 81.8813C109.863 81.8813 117.859 89.877 117.859 99.7406C117.859 109.604 109.863 117.6 100 117.6C90.1367 117.6 82.1407 109.604 82.1407 99.7406C82.1407 89.877 90.1367 81.8813 100 81.8813Z" fill="#00D8FF"/>
</svg>
