<svg width="200" height="200" viewBox="0 0 200 200" fill="none" xmlns="http://www.w3.org/2000/svg">
<g clip-path="url(#clip0_22_2)">
<rect width="200" height="200" rx="100" fill="black"/>
<path d="M100 0C44.6875 0 0 44.8031 0 100C0 155.312 44.8031 200 100 200C155.312 200 200 155.197 200 100C200 44.8031 155.197 0 100 0ZM145.875 144.325C144.084 147.312 140.259 148.147 137.272 146.356C113.734 132.019 84.225 128.794 49.3344 136.678C45.9906 137.397 42.6469 135.366 41.9281 132.022C41.2094 128.678 43.2406 125.334 46.5844 124.616C84.6969 115.897 117.428 119.597 143.716 135.728C144.424 136.15 145.041 136.708 145.533 137.369C146.025 138.031 146.381 138.783 146.581 139.582C146.78 140.382 146.82 141.213 146.697 142.028C146.575 142.843 146.292 143.626 145.866 144.331L145.875 144.325ZM158.062 117.084C155.794 120.787 151.012 121.866 147.312 119.709C120.431 103.222 79.45 98.4438 47.6719 108C43.4906 109.194 39.1906 106.925 37.9938 102.863C36.8 98.6813 39.0687 94.3812 43.25 93.1844C79.5687 82.1937 124.731 87.45 155.675 106.447C159.259 108.597 160.331 113.375 158.066 117.081L158.062 117.084ZM159.137 88.6469C126.878 69.5312 73.7125 67.7406 42.8875 77.0594C37.9875 78.6125 32.7313 75.7469 31.1781 70.8469C29.625 65.9469 32.4906 60.6906 37.3906 59.1375C72.7562 48.3875 131.538 50.5344 168.578 72.5187C173 75.1437 174.431 80.8812 171.803 85.3C169.413 89.8406 163.559 91.275 159.137 88.6437V88.6469Z" fill="#1ED760"/>
</g>
<defs>
<clipPath id="clip0_22_2">
<rect width="200" height="200" rx="100" fill="white"/>
</clipPath>
</defs>
</svg>
