<svg width="200" height="200" viewBox="0 0 200 200" fill="none" xmlns="http://www.w3.org/2000/svg">
<path d="M112.939 30.7046V61.4123L166.122 92.12V61.4123L112.939 30.7046ZM6.56934 61.4123V92.12L33.1609 107.471V76.7661L6.56934 61.4123ZM86.344 76.7661L59.7525 92.12V184.237L86.344 199.591V138.178L112.939 153.532V122.825L86.344 107.471V76.7661Z" fill="#E55B2D"/>
<path d="M112.939 30.7046L33.1609 76.7661V107.471L86.344 76.7661V107.471L112.939 92.12V30.7046ZM192.717 46.0584L166.122 61.4123V92.12L192.717 76.7661V46.0584ZM139.53 107.471L112.939 122.825V153.532L139.53 138.178V107.471ZM112.939 153.532L86.344 138.178V199.591L112.939 184.237V153.532Z" fill="#ED8E24"/>
<path d="M112.939 0L6.56934 61.4122L33.1609 76.7661L112.939 30.7045L166.122 61.4122L192.717 46.0584L112.939 0ZM112.939 92.12L86.344 107.471L112.939 122.825L139.53 107.471L112.939 92.12Z" fill="#F8BF3C"/>
</svg>
