<svg width="200" height="200" viewBox="0 0 200 200" fill="none" xmlns="http://www.w3.org/2000/svg">
<path d="M200 162.5V100C200 96.6848 198.683 93.5054 196.339 91.1612C193.995 88.817 190.815 87.5 187.5 87.5H162.5C159.185 87.5 156.005 88.817 153.661 91.1612C151.317 93.5054 150 96.6848 150 100V162.5C150 165.815 151.317 168.995 153.661 171.339C156.005 173.683 159.185 175 162.5 175H187.5C190.815 175 193.995 173.683 196.339 171.339C198.683 168.995 200 165.815 200 162.5Z" fill="#F44336"/>
<path d="M112.5 175C115.815 175 118.995 173.683 121.339 171.339C123.683 168.995 125 165.815 125 162.5V37.5C125 34.1848 123.683 31.0054 121.339 28.6612C118.995 26.317 115.815 25 112.5 25H87.5C80.6083 25 75 30.6 75 37.5V162.5C75 169.4 80.6083 175 87.5 175H112.5Z" fill="#2196F3"/>
<path d="M0 162.5C0 169.4 5.60833 175 12.5 175H37.5C40.8152 175 43.9946 173.683 46.3388 171.339C48.683 168.995 50 165.815 50 162.5V75C50 71.6848 48.683 68.5054 46.3388 66.1612C43.9946 63.817 40.8152 62.5 37.5 62.5H12.5C5.60833 62.5 0 68.1 0 75V162.5Z" fill="#FFC107"/>
</svg>
