<svg width="200" height="200" viewBox="0 0 200 200" fill="none" xmlns="http://www.w3.org/2000/svg">
<path d="M120.65 124.024C114.384 124.635 108.072 123.486 102.423 120.705C101.143 119.682 100.087 118.406 99.3198 116.959C98.5523 115.511 98.0897 113.921 97.9607 112.287C97.9581 112.043 97.907 111.801 97.8104 111.577C97.7138 111.352 97.5737 111.149 97.398 110.979C97.2224 110.809 97.0148 110.675 96.7872 110.586C96.5596 110.497 96.3166 110.453 96.0722 110.459C93.4339 110.427 90.7962 110.434 88.1584 110.455C87.6974 110.408 87.2365 110.545 86.8755 110.835C86.5146 111.126 86.2827 111.547 86.2303 112.007C86.0798 114.874 86.5643 117.738 87.6491 120.395C88.734 123.052 90.3923 125.437 92.5057 127.379C97.8406 131.542 104.319 133.978 111.075 134.364C118.114 135.18 125.239 134.878 132.184 133.467C137.516 132.473 142.406 129.838 146.169 125.931C148.249 123.366 149.644 120.314 150.221 117.062C150.798 113.81 150.539 110.465 149.469 107.341C148.57 105.138 147.178 103.171 145.401 101.59C143.624 100.009 141.508 98.856 139.216 98.2196C128.542 94.4746 117.013 94.7578 106.132 91.9121C104.243 91.3175 101.935 90.6721 101.093 88.6722C100.607 87.2649 100.573 85.7404 100.998 84.3132C101.423 82.886 102.284 81.6278 103.461 80.7157C106.878 78.7632 110.768 77.7946 114.701 77.9173C120.039 77.4148 125.42 78.1847 130.402 80.1638C131.899 81.0441 133.186 82.2397 134.175 83.6675C135.163 85.0953 135.829 86.7211 136.125 88.4321C136.14 88.937 136.342 89.4183 136.693 89.7817C137.044 90.145 137.518 90.364 138.022 90.3958C140.642 90.4493 143.262 90.4101 145.881 90.4137C146.336 90.468 146.794 90.3565 147.173 90.0998C147.552 89.843 147.825 89.4581 147.942 89.016C147.966 85.4828 147.065 82.0047 145.331 78.9264C143.596 75.8482 141.088 73.2764 138.054 71.466C129.679 67.6009 120.383 66.1785 111.235 67.3624C104.533 67.6372 98.1297 70.2094 93.1007 74.6483C90.7919 77.1367 89.2285 80.2235 88.5885 83.5571C87.9485 86.8908 88.2577 90.3371 89.4808 93.5036C90.4329 95.6248 91.8337 97.5142 93.5865 99.0418C95.3393 100.569 97.4026 101.699 99.634 102.352C110.271 106.194 121.93 104.961 132.671 108.359C134.764 109.069 137.201 110.155 137.843 112.484C138.187 113.88 138.161 115.342 137.767 116.725C137.373 118.108 136.624 119.364 135.595 120.369C131.128 123.144 125.894 124.424 120.65 124.024ZM169.141 53.6461C148.372 41.9017 127.599 30.1678 106.821 18.4446C104.736 17.2788 102.387 16.6667 99.9983 16.6667C97.6097 16.6667 95.2609 17.2788 93.1761 18.4446C72.4787 30.1324 51.7802 41.8196 31.0807 53.5063C29.067 54.6038 27.3836 56.2202 26.2052 58.1877C25.0268 60.1552 24.3962 62.4022 24.379 64.6955V135.314C24.4121 137.649 25.0766 139.932 26.302 141.92C27.5273 143.908 29.2679 145.527 31.339 146.606C37.2849 149.842 43.0618 153.408 49.1155 156.43C52.6095 158.297 56.4903 159.326 60.4508 159.435C64.4112 159.544 68.3427 158.73 71.934 157.057C74.6213 155.373 76.8079 153 78.266 150.184C79.7241 147.368 80.4003 144.213 80.2242 141.047C80.2704 117.741 80.2313 94.4345 80.2419 71.1283C80.2825 70.8735 80.2688 70.6129 80.2017 70.3638C80.1345 70.1147 80.0155 69.8825 79.8525 69.6826C79.6894 69.4826 79.4859 69.3194 79.2554 69.2035C79.0248 69.0877 78.7724 69.0219 78.5147 69.0103C75.8698 68.9676 73.2208 68.9853 70.576 69.0033C70.3311 68.9813 70.0843 69.0113 69.8519 69.0914C69.6194 69.1715 69.4065 69.2998 69.2271 69.4679C69.0477 69.6361 68.9058 69.8402 68.8109 70.067C68.7159 70.2938 68.6699 70.5381 68.676 70.7839C68.6404 93.9402 68.6832 117.103 68.6547 140.263C68.6607 141.861 68.1778 143.424 67.2707 144.74C66.3636 146.056 65.0757 147.064 63.5797 147.627C61.857 148.136 60.0462 148.276 58.2658 148.038C56.4853 147.8 54.7751 147.189 53.2469 146.244C47.7385 143.133 42.2301 140.022 36.7219 136.912C36.3569 136.739 36.0537 136.458 35.8531 136.108C35.6525 135.757 35.5641 135.353 35.5999 134.951C35.5999 111.652 35.5999 88.3542 35.5999 65.0573C35.5616 64.6041 35.6675 64.1504 35.9025 63.761C36.1374 63.3716 36.4895 63.0664 36.9082 62.889C57.5378 51.2702 78.1633 39.6393 98.7849 27.9961C99.1431 27.7515 99.5669 27.6209 100.001 27.6216C100.434 27.6222 100.858 27.754 101.215 27.9997C121.844 39.6221 142.472 51.2486 163.099 62.8792C163.515 63.0615 163.865 63.3694 164.098 63.76C164.331 64.1506 164.437 64.6043 164.4 65.0577C164.396 88.3526 164.394 111.649 164.393 134.948C164.429 135.352 164.343 135.758 164.145 136.112C163.948 136.466 163.648 136.753 163.285 136.934C142.971 148.42 122.647 159.89 102.312 171.343C101.34 171.884 100.19 172.755 99.054 172.099C93.7282 169.084 88.4674 165.953 83.1594 162.91C82.8881 162.702 82.561 162.58 82.22 162.56C81.879 162.539 81.5396 162.621 81.2454 162.795C78.9074 164.165 76.4465 165.313 73.8947 166.225C72.7443 166.691 71.3288 166.824 70.5368 167.891C71.5462 168.989 72.7692 169.87 74.1308 170.479C80.3386 174.074 86.5497 177.665 92.7641 181.253C94.8194 182.544 97.1831 183.26 99.6092 183.327C102.035 183.395 104.435 182.811 106.559 181.636C127.26 169.964 147.959 158.286 168.658 146.604C170.727 145.523 172.466 143.903 173.692 141.916C174.918 139.929 175.584 137.648 175.621 135.314V64.6955C175.604 62.4475 174.996 60.2434 173.859 58.3042C172.722 56.365 171.094 54.7586 169.141 53.6461Z" fill="#F7DF1E"/>
</svg>
