<svg width="201" height="200" viewBox="0 0 201 200" fill="none" xmlns="http://www.w3.org/2000/svg">
<g clip-path="url(#clip0_25_22)">
<path d="M200.5 0H0.5V200H200.5V0Z" fill="#202830"/>
<path d="M100.5 128C115.981 128 128.532 115.464 128.532 100C128.532 84.536 115.981 72 100.5 72C85.0186 72 72.4684 84.536 72.4684 100C72.4684 115.464 85.0186 128 100.5 128Z" fill="#00E054"/>
<path d="M148.068 128C163.55 128 176.1 115.464 176.1 100C176.1 84.536 163.55 72 148.068 72C132.587 72 120.037 84.536 120.037 100C120.037 115.464 132.587 128 148.068 128Z" fill="#40BCF4"/>
<path d="M52.9316 128C68.413 128 80.9632 115.464 80.9632 100C80.9632 84.536 68.413 72 52.9316 72C37.4502 72 24.9 84.536 24.9 100C24.9 115.464 37.4502 128 52.9316 128Z" fill="#FF8000"/>
<path fill-rule="evenodd" clip-rule="evenodd" d="M76.716 114.825C74.024 110.526 72.468 105.444 72.468 100C72.468 94.5556 74.024 89.474 76.7152 85.1748C79.4072 89.474 80.9624 94.5556 80.9624 100C80.9624 105.444 79.4068 110.526 76.7152 114.825H76.716ZM124.284 85.1748C126.976 89.474 128.532 94.5556 128.532 100C128.532 105.444 126.976 110.526 124.285 114.825C121.592 110.526 120.037 105.444 120.037 100C120.037 94.5556 121.592 89.474 124.284 85.1748Z" fill="white"/>
</g>
<defs>
<clipPath id="clip0_25_22">
<rect x="0.5" width="200" height="200" rx="100" fill="white"/>
</clipPath>
</defs>
</svg>
