<svg width="48" height="48" viewBox="0 0 48 48" fill="none" xmlns="http://www.w3.org/2000/svg">
<path d="M42.587 5.82819C36.6811 8.27427 11.3573 18.7637 4.36032 21.6226C-0.332159 23.4538 2.41488 25.1707 2.41488 25.1707C2.41488 25.1707 6.42048 26.544 9.8544 27.5741C13.2878 28.6042 15.119 27.4599 15.119 27.4599L31.2566 16.5869C36.9792 12.6955 35.6059 15.9 34.2322 17.2738C31.2566 20.2498 26.3352 24.9418 22.2149 28.7189C20.3837 30.3211 21.299 31.6944 22.1006 32.3813C25.0762 34.8994 33.2026 40.0498 33.66 40.393C36.0778 42.1047 40.8336 44.5685 41.557 39.3629L44.4182 21.3941C45.3341 15.3283 46.2494 9.72003 46.3637 8.11779C46.7074 4.22595 42.587 5.82819 42.587 5.82819Z" fill="#1B92D1"/>
</svg>
